<svg width="12" height="11" viewBox="0 0 12 11" fill="none" xmlns="http://www.w3.org/2000/svg">
<path d="M8.68305 0.863342C8.58185 0.885039 8.49159 0.941839 8.42823 1.02369C8.36488 1.10554 8.33253 1.20716 8.3369 1.31057V10.0798C8.32662 10.1425 8.33011 10.2068 8.34712 10.268C8.36413 10.3293 8.39426 10.3861 8.43543 10.4346C8.47659 10.483 8.52779 10.5219 8.58549 10.5486C8.6432 10.5753 8.70601 10.5892 8.76959 10.5892C8.83317 10.5892 8.89598 10.5753 8.95369 10.5486C9.01139 10.5219 9.06259 10.483 9.10376 10.4346C9.14492 10.3861 9.17505 10.3293 9.19206 10.268C9.20907 10.2068 9.21256 10.1425 9.20228 10.0798V1.31057C9.20375 1.24893 9.1922 1.18768 9.16838 1.1308C9.14457 1.07393 9.10902 1.02272 9.06407 0.980514C9.01913 0.938309 8.96578 0.906058 8.90752 0.885868C8.84926 0.865678 8.7874 0.858002 8.72598 0.863342C8.71168 0.862641 8.69735 0.862641 8.68305 0.863342ZM3.14459 1.32488C3.04339 1.34658 2.95312 1.40338 2.88977 1.48523C2.82642 1.56708 2.79407 1.6687 2.79844 1.77211V9.61826C2.78816 9.68101 2.79165 9.74523 2.80866 9.80649C2.82567 9.86775 2.8558 9.92457 2.89696 9.97303C2.93813 10.0215 2.98933 10.0604 3.04703 10.0871C3.10474 10.1138 3.16755 10.1276 3.23113 10.1276C3.29471 10.1276 3.35752 10.1138 3.41523 10.0871C3.47293 10.0604 3.52413 10.0215 3.56529 9.97303C3.60646 9.92457 3.63659 9.86775 3.6536 9.80649C3.67061 9.74523 3.6741 9.68101 3.66382 9.61826V1.77211C3.66529 1.71047 3.65373 1.64921 3.62992 1.59234C3.6061 1.53547 3.57056 1.48426 3.52561 1.44205C3.48066 1.39985 3.42732 1.3676 3.36906 1.34741C3.3108 1.32722 3.24894 1.31954 3.18751 1.32488C3.17322 1.32418 3.15889 1.32418 3.14459 1.32488ZM7.29844 2.7095C7.19723 2.73119 7.10697 2.78799 7.04362 2.86984C6.98027 2.95169 6.94791 3.05332 6.95228 3.15673V8.23365C6.94178 8.29647 6.9451 8.36083 6.96199 8.42225C6.97889 8.48366 7.00896 8.54066 7.05012 8.58927C7.09128 8.63788 7.14254 8.67694 7.20033 8.70373C7.25812 8.73052 7.32105 8.7444 7.38475 8.7444C7.44844 8.7444 7.51137 8.73052 7.56916 8.70373C7.62695 8.67694 7.67821 8.63788 7.71937 8.58927C7.76053 8.54066 7.7906 8.48366 7.8075 8.42225C7.8244 8.36083 7.82771 8.29647 7.81721 8.23365V3.15673C7.81866 3.09517 7.80713 3.034 7.78337 2.9772C7.75961 2.92039 7.72415 2.86923 7.67931 2.82704C7.63446 2.78485 7.58123 2.75258 7.52308 2.73232C7.46493 2.71207 7.40317 2.70429 7.34182 2.7095C7.32722 2.70876 7.31304 2.70876 7.29844 2.7095ZM1.75998 3.17103C1.65877 3.19273 1.56851 3.24953 1.50516 3.33138C1.44181 3.41323 1.40945 3.51485 1.41382 3.61826V7.77211C1.40332 7.83494 1.40663 7.89929 1.42353 7.96071C1.44043 8.02212 1.4705 8.07912 1.51166 8.12773C1.55282 8.17634 1.60408 8.2154 1.66187 8.24219C1.71966 8.26898 1.78259 8.28286 1.84628 8.28286C1.90998 8.28286 1.97291 8.26898 2.0307 8.24219C2.08849 8.2154 2.13975 8.17634 2.18091 8.12773C2.22207 8.07912 2.25214 8.02212 2.26904 7.96071C2.28593 7.89929 2.28925 7.83494 2.27875 7.77211V3.61826C2.2802 3.55671 2.26867 3.49554 2.24491 3.43873C2.22115 3.38193 2.18569 3.33077 2.14084 3.28858C2.096 3.24639 2.04277 3.21411 1.98462 3.19386C1.92647 3.17361 1.86471 3.16583 1.80336 3.17103C1.78875 3.1703 1.77458 3.1703 1.75998 3.17103ZM4.52921 3.63257C4.428 3.65427 4.33774 3.71107 4.27439 3.79292C4.21104 3.87477 4.17868 3.97639 4.18305 4.0798V7.31057C4.17255 7.3734 4.17586 7.43776 4.19276 7.49917C4.20966 7.56058 4.23973 7.61758 4.28089 7.66619C4.32205 7.7148 4.37331 7.75386 4.4311 7.78065C4.48889 7.80744 4.55182 7.82132 4.61551 7.82132C4.67921 7.82132 4.74214 7.80744 4.79993 7.78065C4.85772 7.75386 4.90898 7.7148 4.95014 7.66619C4.9913 7.61758 5.02137 7.56058 5.03827 7.49917C5.05516 7.43776 5.05848 7.3734 5.04798 7.31057V4.0798C5.04943 4.01825 5.0379 3.95708 5.01414 3.90027C4.99038 3.84347 4.95492 3.7923 4.91007 3.75011C4.86523 3.70792 4.812 3.67565 4.75385 3.6554C4.6957 3.63515 4.63394 3.62737 4.57259 3.63257C4.55798 3.63184 4.54381 3.63184 4.52921 3.63257ZM10.0677 3.63257C9.96646 3.65427 9.8762 3.71107 9.81285 3.79292C9.7495 3.87477 9.71714 3.97639 9.72151 4.0798V7.31057C9.71123 7.37331 9.71472 7.43754 9.73174 7.4988C9.74875 7.56006 9.77888 7.61688 9.82004 7.66534C9.8612 7.71379 9.91241 7.75271 9.97011 7.77941C10.0278 7.8061 10.0906 7.81993 10.1542 7.81993C10.2178 7.81993 10.2806 7.8061 10.3383 7.77941C10.396 7.75271 10.4472 7.71379 10.4884 7.66534C10.5295 7.61688 10.5597 7.56006 10.5767 7.4988C10.5937 7.43754 10.5972 7.37331 10.5869 7.31057V4.0798C10.5884 4.01816 10.5768 3.95691 10.553 3.90003C10.5292 3.84316 10.4936 3.79195 10.4487 3.74974C10.4037 3.70754 10.3504 3.67529 10.2921 3.6551C10.2339 3.63491 10.172 3.62723 10.1106 3.63257C10.0963 3.63187 10.082 3.63187 10.0677 3.63257ZM0.375361 4.55565C0.274158 4.57735 0.183893 4.63415 0.120542 4.716C0.0571905 4.79785 0.0248368 4.89947 0.0292068 5.00288V6.3875C0.0189271 6.45024 0.0224148 6.51446 0.0394279 6.57572C0.0564411 6.63698 0.0865726 6.69381 0.127734 6.74226C0.168895 6.79071 0.220102 6.82964 0.277803 6.85633C0.335505 6.88302 0.398322 6.89685 0.461899 6.89685C0.525476 6.89685 0.588293 6.88302 0.645995 6.85633C0.703696 6.82964 0.754903 6.79071 0.796064 6.74226C0.837225 6.69381 0.867357 6.63698 0.88437 6.57572C0.901383 6.51446 0.904871 6.45024 0.894591 6.3875V5.00288C0.896056 4.94124 0.884504 4.87998 0.860689 4.82311C0.836874 4.76624 0.801332 4.71503 0.756383 4.67282C0.711434 4.63062 0.658088 4.59837 0.59983 4.57818C0.541572 4.55799 0.47971 4.55031 0.418284 4.55565C0.403831 4.55493 0.389352 4.55493 0.374899 4.55565H0.375361ZM5.91382 4.55565C5.81262 4.57735 5.72235 4.63415 5.659 4.716C5.59565 4.79785 5.5633 4.89947 5.56767 5.00288V6.3875C5.55717 6.45032 5.56048 6.51468 5.57738 6.57609C5.59427 6.63751 5.62435 6.6945 5.66551 6.74311C5.70667 6.79173 5.75793 6.83079 5.81571 6.85758C5.8735 6.88437 5.93643 6.89824 6.00013 6.89824C6.06383 6.89824 6.12676 6.88437 6.18455 6.85758C6.24233 6.83079 6.29359 6.79173 6.33475 6.74311C6.37591 6.6945 6.40599 6.63751 6.42288 6.57609C6.43978 6.51468 6.44309 6.45032 6.43259 6.3875V5.00288C6.43404 4.94132 6.42251 4.88015 6.39875 4.82335C6.37499 4.76655 6.33954 4.71538 6.29469 4.67319C6.24984 4.631 6.19661 4.59873 6.13847 4.57848C6.08032 4.55823 6.01856 4.55045 5.95721 4.55565C5.9426 4.55492 5.92843 4.55492 5.91382 4.55565ZM11.4523 4.55565C11.3511 4.57735 11.2608 4.63415 11.1975 4.716C11.1341 4.79785 11.1018 4.89947 11.1061 5.00288V6.3875C11.0958 6.45024 11.0993 6.51446 11.1164 6.57572C11.1334 6.63698 11.1635 6.69381 11.2047 6.74226C11.2458 6.79071 11.297 6.82964 11.3547 6.85633C11.4124 6.88302 11.4752 6.89685 11.5388 6.89685C11.6024 6.89685 11.6652 6.88302 11.7229 6.85633C11.7806 6.82964 11.8318 6.79071 11.873 6.74226C11.9141 6.69381 11.9443 6.63698 11.9613 6.57572C11.9783 6.51446 11.9818 6.45024 11.9715 6.3875V5.00288C11.973 4.94124 11.9614 4.87998 11.9376 4.82311C11.9138 4.76624 11.8783 4.71503 11.8333 4.67282C11.7884 4.63062 11.735 4.59837 11.6768 4.57818C11.6185 4.55799 11.5566 4.55031 11.4952 4.55565C11.4809 4.55495 11.4666 4.55495 11.4523 4.55565Z" fill="#9E9CA8"/>
</svg>
