<svg width="11.954102" height="9.727539" viewBox="0 0 11.9541 9.72754" fill="none" xmlns="http://www.w3.org/2000/svg" xmlns:xlink="http://www.w3.org/1999/xlink">
	<desc>
			Created with Pixso.
	</desc>
	<defs/>
	<path id="Vector" d="M8.65 0C8.55 0.02 8.46 0.08 8.4 0.16C8.34 0.24 8.3 0.34 8.31 0.44L8.31 9.21C8.3 9.28 8.3 9.34 8.32 9.4C8.34 9.46 8.37 9.52 8.41 9.57C8.45 9.62 8.5 9.66 8.56 9.68C8.62 9.71 8.68 9.72 8.74 9.72C8.8 9.72 8.87 9.71 8.93 9.68C8.98 9.66 9.03 9.62 9.08 9.57C9.12 9.52 9.15 9.46 9.16 9.4C9.18 9.34 9.18 9.28 9.17 9.21L9.17 0.44C9.18 0.38 9.16 0.32 9.14 0.26C9.12 0.21 9.08 0.16 9.04 0.11C8.99 0.07 8.94 0.04 8.88 0.02C8.82 0 8.76 -0.01 8.7 0C8.68 0 8.67 0 8.65 0ZM3.12 0.46C3.01 0.48 2.92 0.54 2.86 0.62C2.8 0.7 2.77 0.8 2.77 0.91L2.77 8.75C2.76 8.81 2.76 8.88 2.78 8.94C2.8 9 2.83 9.06 2.87 9.11C2.91 9.15 2.96 9.19 3.02 9.22C3.08 9.25 3.14 9.26 3.2 9.26C3.27 9.26 3.33 9.25 3.39 9.22C3.44 9.19 3.5 9.15 3.54 9.11C3.58 9.06 3.61 9 3.62 8.94C3.64 8.88 3.65 8.81 3.64 8.75L3.64 0.91C3.64 0.84 3.62 0.78 3.6 0.73C3.58 0.67 3.54 0.62 3.5 0.58C3.45 0.53 3.4 0.5 3.34 0.48C3.28 0.46 3.22 0.45 3.16 0.46C3.14 0.46 3.13 0.46 3.12 0.46ZM7.27 1.84C7.17 1.86 7.08 1.92 7.02 2C6.95 2.09 6.92 2.19 6.92 2.29L6.92 7.37C6.91 7.43 6.92 7.49 6.93 7.56C6.95 7.62 6.98 7.67 7.02 7.72C7.06 7.77 7.11 7.81 7.17 7.84C7.23 7.86 7.29 7.88 7.36 7.88C7.42 7.88 7.48 7.86 7.54 7.84C7.6 7.81 7.65 7.77 7.69 7.72C7.73 7.67 7.76 7.62 7.78 7.56C7.8 7.49 7.8 7.43 7.79 7.37L7.79 2.29C7.79 2.23 7.78 2.17 7.75 2.11C7.73 2.05 7.7 2 7.65 1.96C7.61 1.92 7.55 1.89 7.5 1.87C7.44 1.85 7.37 1.84 7.31 1.84C7.3 1.84 7.29 1.84 7.27 1.84ZM1.73 2.3C1.63 2.33 1.54 2.38 1.48 2.46C1.41 2.55 1.38 2.65 1.39 2.75L1.39 6.91C1.37 6.97 1.38 7.03 1.4 7.09C1.41 7.16 1.44 7.21 1.48 7.26C1.52 7.31 1.58 7.35 1.63 7.38C1.69 7.4 1.75 7.42 1.82 7.42C1.88 7.42 1.94 7.4 2 7.38C2.06 7.35 2.11 7.31 2.15 7.26C2.19 7.21 2.22 7.16 2.24 7.09C2.26 7.03 2.26 6.97 2.25 6.91L2.25 2.75C2.25 2.69 2.24 2.63 2.22 2.57C2.19 2.52 2.16 2.46 2.11 2.42C2.07 2.38 2.01 2.35 1.96 2.33C1.9 2.31 1.84 2.3 1.78 2.3C1.76 2.3 1.75 2.3 1.73 2.3ZM4.5 2.77C4.4 2.79 4.31 2.84 4.25 2.93C4.18 3.01 4.15 3.11 4.15 3.21L4.15 6.44C4.14 6.51 4.15 6.57 4.16 6.63C4.18 6.69 4.21 6.75 4.25 6.8C4.29 6.85 4.34 6.89 4.4 6.91C4.46 6.94 4.52 6.95 4.59 6.95C4.65 6.95 4.71 6.94 4.77 6.91C4.83 6.89 4.88 6.85 4.92 6.8C4.96 6.75 4.99 6.69 5.01 6.63C5.03 6.57 5.03 6.51 5.02 6.44L5.02 3.21C5.02 3.15 5.01 3.09 4.99 3.03C4.96 2.98 4.93 2.93 4.88 2.88C4.84 2.84 4.78 2.81 4.73 2.79C4.67 2.77 4.61 2.76 4.54 2.77C4.53 2.77 4.52 2.77 4.5 2.77ZM10.04 2.77C9.94 2.79 9.85 2.84 9.78 2.93C9.72 3.01 9.69 3.11 9.69 3.21L9.69 6.44C9.68 6.51 9.69 6.57 9.7 6.63C9.72 6.69 9.75 6.75 9.79 6.8C9.83 6.85 9.88 6.89 9.94 6.91C10 6.94 10.06 6.95 10.13 6.95C10.19 6.95 10.25 6.94 10.31 6.91C10.37 6.89 10.42 6.85 10.46 6.8C10.5 6.75 10.53 6.69 10.55 6.63C10.57 6.57 10.57 6.51 10.56 6.44L10.56 3.21C10.56 3.15 10.55 3.09 10.52 3.03C10.5 2.98 10.46 2.93 10.42 2.88C10.37 2.84 10.32 2.81 10.26 2.79C10.21 2.77 10.14 2.76 10.08 2.77C10.07 2.77 10.05 2.77 10.04 2.77ZM0.35 3.69C0.25 3.71 0.16 3.77 0.09 3.85C0.03 3.93 0 4.03 0 4.14L0 5.52C-0.01 5.58 -0.01 5.65 0.01 5.71C0.03 5.77 0.06 5.83 0.1 5.88C0.14 5.92 0.19 5.96 0.25 5.99C0.31 6.02 0.37 6.03 0.43 6.03C0.5 6.03 0.56 6.02 0.62 5.99C0.68 5.96 0.73 5.92 0.77 5.88C0.81 5.83 0.84 5.77 0.86 5.71C0.87 5.65 0.88 5.58 0.87 5.52L0.87 4.14C0.87 4.07 0.86 4.01 0.83 3.96C0.81 3.9 0.77 3.85 0.73 3.81C0.68 3.76 0.63 3.73 0.57 3.71C0.51 3.69 0.45 3.68 0.39 3.69C0.38 3.69 0.36 3.69 0.35 3.69L0.35 3.69ZM5.89 3.69C5.78 3.71 5.69 3.77 5.63 3.85C5.57 3.93 5.54 4.03 5.54 4.14L5.54 5.52C5.53 5.58 5.53 5.65 5.55 5.71C5.57 5.77 5.6 5.83 5.64 5.88C5.68 5.92 5.73 5.96 5.79 5.99C5.84 6.02 5.91 6.03 5.97 6.03C6.04 6.03 6.1 6.02 6.16 5.99C6.21 5.96 6.27 5.92 6.31 5.88C6.35 5.83 6.38 5.77 6.39 5.71C6.41 5.65 6.41 5.58 6.4 5.52L6.4 4.14C6.41 4.07 6.39 4.01 6.37 3.96C6.35 3.9 6.31 3.85 6.27 3.81C6.22 3.76 6.17 3.73 6.11 3.71C6.05 3.69 5.99 3.68 5.93 3.69C5.91 3.69 5.9 3.69 5.89 3.69ZM11.42 3.69C11.32 3.71 11.23 3.77 11.17 3.85C11.11 3.93 11.07 4.03 11.08 4.14L11.08 5.52C11.07 5.58 11.07 5.65 11.09 5.71C11.11 5.77 11.13 5.83 11.18 5.88C11.22 5.92 11.27 5.96 11.33 5.99C11.38 6.02 11.45 6.03 11.51 6.03C11.57 6.03 11.64 6.02 11.69 5.99C11.75 5.96 11.8 5.92 11.84 5.88C11.89 5.83 11.92 5.77 11.93 5.71C11.95 5.65 11.95 5.58 11.94 5.52L11.94 4.14C11.94 4.07 11.93 4.01 11.91 3.96C11.89 3.9 11.85 3.85 11.8 3.81C11.76 3.76 11.71 3.73 11.65 3.71C11.59 3.69 11.53 3.68 11.47 3.69C11.45 3.69 11.44 3.69 11.42 3.69Z" fill="#120E23" fill-opacity="1.000000" fill-rule="nonzero"/>
</svg>
