<svg width="12.000000" height="12.000000" viewBox="0 0 12 12" fill="none" xmlns="http://www.w3.org/2000/svg" xmlns:xlink="http://www.w3.org/1999/xlink">
	<desc>
			Created with Pixso.
	</desc>
	<defs/>
	<path id="Vector" d="M0 0L3.59 0L3.59 3.59L0 3.59L0 0ZM1.2 1.19L1.2 2.4L2.4 2.4L2.4 1.19L1.2 1.19ZM8.4 0L12 0L12 3.59L8.4 3.59L8.4 0ZM9.59 1.19L9.59 2.4L10.79 2.4L10.79 1.19L9.59 1.19ZM8.4 8.4L12 8.4L12 12L8.4 12L8.4 8.4ZM9.59 9.59L9.59 10.8L10.79 10.8L10.79 9.59L9.59 9.59ZM0 8.4L3.59 8.4L3.59 12L0 12L0 8.4ZM1.2 9.59L1.2 10.8L2.4 10.8L2.4 9.59L1.2 9.59ZM3.59 1.19L8.4 1.19L8.4 2.4L3.59 2.4L3.59 1.19ZM3.59 9.59L8.4 9.59L8.4 10.8L3.59 10.8L3.59 9.59ZM9.59 3.59L10.79 3.59L10.79 8.4L9.59 8.4L9.59 3.59ZM1.2 3.59L2.4 3.59L2.4 8.4L1.2 8.4L1.2 3.59ZM4.2 4.19L7.79 4.19L7.79 5.4L4.2 5.4L4.2 4.19ZM5.4 5.4L6.59 5.4L6.59 7.8L5.4 7.8L5.4 5.4Z" fill="#120E23" fill-opacity="1.000000" fill-rule="nonzero"/>
</svg>
