<svg width="12.000000" height="14.625244" viewBox="0 0 12 14.6252" fill="none" xmlns="http://www.w3.org/2000/svg" xmlns:xlink="http://www.w3.org/1999/xlink">
	<desc>
			Created with Pixso.
	</desc>
	<defs/>
	<path id="Vector" d="M10.5 0L10.5 1.62L9 1.62L9 0L3 0L3 1.62L1.5 1.62L1.5 0L0 0L0 14.62L1.5 14.62L1.5 13L3 13L3 14.62L9 14.62L9 13L10.5 13L10.5 14.62L12 14.62L12 0L10.5 0ZM3 11.37L1.5 11.37L1.5 9.75L3 9.75L3 11.37ZM3 8.12L1.5 8.12L1.5 6.5L3 6.5L3 8.12ZM3 4.87L1.5 4.87L1.5 3.25L3 3.25L3 4.87ZM10.5 11.37L9 11.37L9 9.75L10.5 9.75L10.5 11.37ZM10.5 8.12L9 8.12L9 6.5L10.5 6.5L10.5 8.12ZM10.5 4.87L9 4.87L9 3.25L10.5 3.25L10.5 4.87Z" fill="#2B234F" fill-opacity="1.000000" fill-rule="nonzero"/>
</svg>
