<svg width="18.000000" height="19.500305" viewBox="0 0 18 19.5003" fill="none" xmlns="http://www.w3.org/2000/svg" xmlns:xlink="http://www.w3.org/1999/xlink">
	<desc>
			Created with Pixso.
	</desc>
	<defs/>
	<rect id="icon" rx="0.000000" width="17.000000" height="18.500296" transform="translate(0.500000 0.500000)" fill="#FFFFFF" fill-opacity="0"/>
	<path id="Vector" d="M13.02 1.52C12.87 1.55 12.73 1.65 12.64 1.78C12.54 1.91 12.49 2.08 12.5 2.25L12.5 16.5C12.49 16.6 12.49 16.7 12.52 16.8C12.54 16.9 12.59 16.99 12.65 17.07C12.71 17.15 12.79 17.21 12.87 17.26C12.96 17.3 13.05 17.32 13.15 17.32C13.25 17.32 13.34 17.3 13.43 17.26C13.51 17.21 13.59 17.15 13.65 17.07C13.71 16.99 13.76 16.9 13.78 16.8C13.81 16.7 13.81 16.6 13.8 16.5L13.8 2.25C13.8 2.15 13.78 2.05 13.75 1.95C13.71 1.86 13.66 1.78 13.59 1.71C13.52 1.64 13.44 1.59 13.36 1.56C13.27 1.52 13.18 1.51 13.08 1.52C13.06 1.52 13.04 1.52 13.02 1.52ZM4.71 2.27C4.56 2.3 4.42 2.4 4.33 2.53C4.23 2.66 4.19 2.83 4.19 3L4.19 15.75C4.18 15.85 4.18 15.95 4.21 16.05C4.23 16.15 4.28 16.24 4.34 16.32C4.4 16.4 4.48 16.46 4.57 16.51C4.65 16.55 4.75 16.57 4.84 16.57C4.94 16.57 5.03 16.55 5.12 16.51C5.2 16.46 5.28 16.4 5.34 16.32C5.41 16.24 5.45 16.15 5.48 16.05C5.5 15.95 5.51 15.85 5.49 15.75L5.49 3C5.49 2.9 5.48 2.8 5.44 2.7C5.4 2.61 5.35 2.53 5.28 2.46C5.22 2.39 5.14 2.34 5.05 2.31C4.96 2.27 4.87 2.26 4.78 2.27C4.75 2.27 4.73 2.27 4.71 2.27ZM10.94 4.52C10.79 4.55 10.66 4.65 10.56 4.78C10.47 4.91 10.42 5.08 10.42 5.25L10.42 13.5C10.41 13.6 10.41 13.7 10.44 13.8C10.46 13.9 10.51 13.99 10.57 14.07C10.63 14.15 10.71 14.22 10.8 14.26C10.88 14.3 10.98 14.33 11.07 14.33C11.17 14.33 11.26 14.3 11.35 14.26C11.44 14.22 11.51 14.15 11.57 14.07C11.64 13.99 11.68 13.9 11.71 13.8C11.73 13.7 11.74 13.6 11.72 13.5L11.72 5.25C11.72 5.15 11.71 5.05 11.67 4.95C11.63 4.86 11.58 4.78 11.51 4.71C11.45 4.64 11.37 4.59 11.28 4.56C11.19 4.52 11.1 4.51 11.01 4.52C10.99 4.52 10.96 4.52 10.94 4.52ZM2.63 5.27C2.48 5.3 2.35 5.4 2.25 5.53C2.16 5.66 2.11 5.83 2.12 6L2.12 12.75C2.1 12.85 2.11 12.95 2.13 13.05C2.16 13.15 2.2 13.24 2.26 13.32C2.32 13.4 2.4 13.47 2.49 13.51C2.57 13.55 2.67 13.58 2.76 13.58C2.86 13.58 2.95 13.55 3.04 13.51C3.13 13.47 3.2 13.4 3.27 13.32C3.33 13.24 3.37 13.15 3.4 13.05C3.42 12.95 3.43 12.85 3.41 12.75L3.41 6C3.41 5.9 3.4 5.8 3.36 5.7C3.33 5.61 3.27 5.53 3.21 5.46C3.14 5.39 3.06 5.34 2.97 5.31C2.88 5.27 2.79 5.26 2.7 5.27C2.68 5.27 2.66 5.27 2.63 5.27ZM6.79 6.02C6.64 6.05 6.5 6.15 6.41 6.28C6.31 6.41 6.26 6.58 6.27 6.75L6.27 12C6.25 12.1 6.26 12.2 6.28 12.3C6.31 12.4 6.35 12.49 6.42 12.57C6.48 12.65 6.55 12.72 6.64 12.76C6.73 12.8 6.82 12.83 6.92 12.83C7.01 12.83 7.11 12.8 7.2 12.76C7.28 12.72 7.36 12.65 7.42 12.57C7.48 12.49 7.53 12.4 7.55 12.3C7.58 12.2 7.58 12.1 7.57 12L7.57 6.75C7.57 6.65 7.55 6.55 7.52 6.45C7.48 6.36 7.43 6.28 7.36 6.21C7.29 6.14 7.21 6.09 7.13 6.06C7.04 6.02 6.95 6.01 6.85 6.02C6.83 6.02 6.81 6.02 6.79 6.02ZM15.1 6.02C14.94 6.05 14.81 6.15 14.71 6.28C14.62 6.41 14.57 6.58 14.58 6.75L14.58 12C14.56 12.1 14.57 12.2 14.59 12.3C14.62 12.4 14.66 12.49 14.73 12.57C14.79 12.65 14.86 12.71 14.95 12.76C15.04 12.8 15.13 12.82 15.23 12.82C15.32 12.82 15.42 12.8 15.5 12.76C15.59 12.71 15.67 12.65 15.73 12.57C15.79 12.49 15.83 12.4 15.86 12.3C15.89 12.2 15.89 12.1 15.87 12L15.87 6.75C15.88 6.65 15.86 6.55 15.82 6.45C15.79 6.36 15.74 6.28 15.67 6.21C15.6 6.14 15.52 6.09 15.43 6.06C15.35 6.02 15.25 6.01 15.16 6.02C15.14 6.02 15.12 6.02 15.1 6.02ZM0.56 7.52C0.41 7.55 0.27 7.65 0.18 7.78C0.08 7.91 0.03 8.08 0.04 8.25L0.04 10.5C0.02 10.6 0.03 10.7 0.05 10.8C0.08 10.9 0.12 10.99 0.19 11.07C0.25 11.15 0.33 11.21 0.41 11.26C0.5 11.3 0.59 11.32 0.69 11.32C0.78 11.32 0.88 11.3 0.96 11.26C1.05 11.21 1.13 11.15 1.19 11.07C1.25 10.99 1.3 10.9 1.32 10.8C1.35 10.7 1.35 10.6 1.34 10.5L1.34 8.25C1.34 8.15 1.32 8.05 1.29 7.95C1.25 7.86 1.2 7.78 1.13 7.71C1.06 7.64 0.98 7.59 0.89 7.56C0.81 7.52 0.71 7.51 0.62 7.52C0.6 7.52 0.58 7.52 0.56 7.52L0.56 7.52ZM8.87 7.52C8.71 7.55 8.58 7.65 8.48 7.78C8.39 7.91 8.34 8.08 8.35 8.25L8.35 10.5C8.33 10.6 8.34 10.7 8.36 10.8C8.39 10.9 8.43 10.99 8.49 11.07C8.55 11.15 8.63 11.22 8.72 11.26C8.81 11.3 8.9 11.33 9 11.33C9.09 11.33 9.19 11.3 9.27 11.26C9.36 11.22 9.44 11.15 9.5 11.07C9.56 10.99 9.6 10.9 9.63 10.8C9.66 10.7 9.66 10.6 9.64 10.5L9.64 8.25C9.65 8.15 9.63 8.05 9.59 7.95C9.56 7.86 9.5 7.78 9.44 7.71C9.37 7.64 9.29 7.59 9.2 7.56C9.12 7.52 9.02 7.51 8.93 7.52C8.91 7.52 8.89 7.52 8.87 7.52ZM17.17 7.52C17.02 7.55 16.89 7.65 16.79 7.78C16.7 7.91 16.65 8.08 16.65 8.25L16.65 10.5C16.64 10.6 16.64 10.7 16.67 10.8C16.7 10.9 16.74 10.99 16.8 11.07C16.86 11.15 16.94 11.21 17.03 11.26C17.11 11.3 17.21 11.32 17.3 11.32C17.4 11.32 17.49 11.3 17.58 11.26C17.67 11.21 17.74 11.15 17.8 11.07C17.87 10.99 17.91 10.9 17.94 10.8C17.96 10.7 17.97 10.6 17.95 10.5L17.95 8.25C17.95 8.15 17.94 8.05 17.9 7.95C17.87 7.86 17.81 7.78 17.75 7.71C17.68 7.64 17.6 7.59 17.51 7.56C17.42 7.52 17.33 7.51 17.24 7.52C17.22 7.52 17.2 7.52 17.17 7.52Z" fill="#2B234F" fill-opacity="1.000000" fill-rule="nonzero"/>
</svg>
