<svg width="10.500000" height="15.437744" viewBox="0 0 10.5 15.4377" fill="none" xmlns="http://www.w3.org/2000/svg" xmlns:xlink="http://www.w3.org/1999/xlink">
	<desc>
			Created with Pixso.
	</desc>
	<defs/>
	<path id="Vector" d="M5.25 9.75C4.62 9.75 4.09 9.51 3.65 9.03C3.21 8.56 3 7.98 3 7.31L3 2.43C3 1.76 3.21 1.18 3.65 0.71C4.09 0.23 4.62 0 5.25 0C5.87 0 6.4 0.23 6.84 0.71C7.28 1.18 7.5 1.76 7.5 2.43L7.5 7.31C7.5 7.98 7.28 8.56 6.84 9.03C6.4 9.51 5.87 9.75 5.25 9.75ZM4.5 15.43L4.5 12.93C3.2 12.74 2.12 12.12 1.27 11.05C0.42 9.98 0 8.73 0 7.31L1.5 7.31C1.5 8.43 1.86 9.39 2.59 10.18C3.32 10.97 4.21 11.37 5.25 11.37C6.28 11.37 7.17 10.97 7.9 10.18C8.63 9.39 9 8.43 9 7.31L10.5 7.31C10.5 8.73 10.07 9.98 9.22 11.05C8.37 12.12 7.29 12.74 6 12.93L6 15.43L4.5 15.43Z" fill="#2B234F" fill-opacity="1.000000" fill-rule="nonzero"/>
</svg>
