<svg width="18.000000" height="19.500244" viewBox="0 0 18 19.5002" fill="none" xmlns="http://www.w3.org/2000/svg" xmlns:xlink="http://www.w3.org/1999/xlink">
	<desc>
			Created with Pixso.
	</desc>
	<defs/>
	<path id="Vector" d="M0 0L5.4 0L5.4 5.85L0 5.85L0 0ZM1.79 1.95L1.79 3.9L3.59 3.9L3.59 1.95L1.79 1.95ZM12.59 0L18 0L18 5.85L12.59 5.85L12.59 0ZM14.4 1.95L14.4 3.9L16.2 3.9L16.2 1.95L14.4 1.95ZM12.59 13.65L18 13.65L18 19.5L12.59 19.5L12.59 13.65ZM14.4 15.6L14.4 17.55L16.2 17.55L16.2 15.6L14.4 15.6ZM0 13.65L5.4 13.65L5.4 19.5L0 19.5L0 13.65ZM1.79 15.6L1.79 17.55L3.59 17.55L3.59 15.6L1.79 15.6ZM5.4 1.95L12.59 1.95L12.59 3.9L5.4 3.9L5.4 1.95ZM5.4 15.6L12.59 15.6L12.59 17.55L5.4 17.55L5.4 15.6ZM14.4 5.85L16.2 5.85L16.2 13.65L14.4 13.65L14.4 5.85ZM1.79 5.85L3.59 5.85L3.59 13.65L1.79 13.65L1.79 5.85ZM6.29 6.82L11.7 6.82L11.7 8.77L6.29 8.77L6.29 6.82ZM8.09 8.77L9.9 8.77L9.9 12.67L8.09 12.67L8.09 8.77Z" fill="#9E9CA8" fill-opacity="1.000000" fill-rule="nonzero"/>
</svg>