<svg width="15" height="16" viewBox="0 0 15 16" fill="none" xmlns="http://www.w3.org/2000/svg">
<g clip-path="url(#clip0_1314_2419)">
<path d="M6.25 7.19434C6.59518 7.19434 6.875 7.47416 6.875 7.81934V11.5693C6.875 11.9145 6.59518 12.1943 6.25 12.1943C5.90482 12.1943 5.625 11.9145 5.625 11.5693V7.81934C5.625 7.47416 5.90482 7.19434 6.25 7.19434Z" fill="#120E23"/>
<path d="M9.375 11.5693V7.81934C9.375 7.47416 9.09518 7.19434 8.75 7.19434C8.40482 7.19434 8.125 7.47416 8.125 7.81934V11.5693C8.125 11.9145 8.40482 12.1943 8.75 12.1943C9.09518 12.1943 9.375 11.9145 9.375 11.5693Z" fill="#120E23"/>
<path fill-rule="evenodd" clip-rule="evenodd" d="M4.375 4.06934V3.44434C4.375 2.94705 4.57254 2.47014 4.92418 2.11851C5.27581 1.76688 5.75272 1.56934 6.25 1.56934H8.75C9.24728 1.56934 9.72419 1.76688 10.0758 2.11851C10.4275 2.47014 10.625 2.94705 10.625 3.44434V4.06934H13.125C13.4702 4.06934 13.75 4.34916 13.75 4.69434C13.75 5.03951 13.4702 5.31934 13.125 5.31934H12.5V13.4443C12.5 13.9416 12.3025 14.4185 11.9508 14.7702C11.5992 15.1218 11.1223 15.3193 10.625 15.3193H4.375C3.87772 15.3193 3.40081 15.1218 3.04917 14.7702C2.69754 14.4185 2.5 13.9416 2.5 13.4443V5.31934H1.875C1.52982 5.31934 1.25 5.03951 1.25 4.69434C1.25 4.34916 1.52982 4.06934 1.875 4.06934H4.375ZM5.80806 3.00239C5.92527 2.88518 6.08424 2.81934 6.25 2.81934H8.75C8.91576 2.81934 9.07473 2.88518 9.19194 3.00239C9.30915 3.1196 9.375 3.27858 9.375 3.44434V4.06934H5.625V3.44434C5.625 3.27858 5.69085 3.1196 5.80806 3.00239ZM3.75 5.31934V13.4443C3.75 13.6101 3.81585 13.7691 3.93306 13.8863C4.05027 14.0035 4.20924 14.0693 4.375 14.0693H10.625C10.7908 14.0693 10.9497 14.0035 11.0669 13.8863C11.1842 13.7691 11.25 13.6101 11.25 13.4443V5.31934H3.75Z" fill="#120E23"/>
</g>
<defs>
<clipPath id="clip0_1314_2419">
<rect width="15" height="15" fill="white" transform="translate(0 0.944336)"/>
</clipPath>
</defs>
</svg>
